<svg width="1500" height="360" viewBox="0 0 1500 360" fill="none" xmlns="http://www.w3.org/2000/svg">
<rect width="1500" height="360" fill="#371E21"/>
<g filter="url(#filter0_d_2_146)">
<path d="M649.39 136H650.95V184C650.95 196.56 648.47 205.8 643.51 211.72C638.55 217.56 632.07 220.48 624.07 220.48C619.03 220.48 614.75 220.04 611.23 219.16C607.71 218.2 604.39 216.48 601.27 214C594.87 209.04 591.67 199.04 591.67 184V136H601.63V183.88C601.63 198.44 603.83 208.16 608.23 213.04C610.47 215.44 612.79 217.08 615.19 217.96C617.67 218.84 620.63 219.28 624.07 219.28C631.75 219.28 637.87 216.48 642.43 210.88C647.07 205.2 649.39 196.2 649.39 183.88V136ZM667.138 137.2V136H688.498V137.2H682.618V218.8H688.498V220H667.138V218.8H672.658V137.2H667.138ZM715.301 136V189.04L754.061 136L755.021 136.84L733.541 166.12L765.461 220H754.301L727.421 174.52L715.301 191.2V220H705.341V136H715.301ZM827.092 136C828.612 137.52 829.372 139.48 829.372 141.88C829.372 143.88 828.932 145.92 828.052 148L806.572 191.56V220H796.612V194.2L772.612 136H782.812L805.732 190.12L826.612 148C827.492 146 827.932 143.92 827.932 141.76C827.932 139.6 827.332 137.92 826.132 136.72L827.092 136ZM835.363 180.04C835.363 165.48 838.883 154.44 845.923 146.92C853.043 139.32 862.163 135.52 873.283 135.52C884.403 135.52 893.243 138.8 899.803 145.36C906.443 151.92 909.763 162.4 909.763 176.8C909.763 191.2 906.243 202.08 899.203 209.44C892.163 216.8 882.763 220.48 871.003 220.48C860.843 220.48 852.523 217.56 846.043 211.72C842.683 208.68 840.043 204.48 838.123 199.12C836.283 193.68 835.363 187.32 835.363 180.04ZM872.923 136.72C864.843 136.72 858.203 140.32 853.003 147.52C847.883 154.72 845.323 165.28 845.323 179.2C845.323 193.12 847.763 203.28 852.643 209.68C857.523 216.08 864.003 219.28 872.083 219.28C880.243 219.28 886.883 215.68 892.003 208.48C897.203 201.2 899.803 190.68 899.803 176.92C899.803 163.08 897.323 152.92 892.363 146.44C887.483 139.96 881.003 136.72 872.923 136.72Z" fill="#DDC9D0"/>
</g>
<defs>
<filter id="filter0_d_2_146" x="587.67" y="135.52" width="326.094" height="92.96" filterUnits="userSpaceOnUse" color-interpolation-filters="sRGB">
<feFlood flood-opacity="0" result="BackgroundImageFix"/>
<feColorMatrix in="SourceAlpha" type="matrix" values="0 0 0 0 0 0 0 0 0 0 0 0 0 0 0 0 0 0 127 0" result="hardAlpha"/>
<feOffset dy="4"/>
<feGaussianBlur stdDeviation="2"/>
<feComposite in2="hardAlpha" operator="out"/>
<feColorMatrix type="matrix" values="0 0 0 0 0.32549 0 0 0 0 0.207843 0 0 0 0 0.227451 0 0 0 0.71 0"/>
<feBlend mode="normal" in2="BackgroundImageFix" result="effect1_dropShadow_2_146"/>
<feBlend mode="normal" in="SourceGraphic" in2="effect1_dropShadow_2_146" result="shape"/>
</filter>
</defs>
</svg>
