<svg width="360" height="800" viewBox="0 0 360 800" fill="none" xmlns="http://www.w3.org/2000/svg">
<rect width="360" height="800" fill="#371E21"/>
<path d="M122.771 346.4H123.655V373.6C123.655 380.717 122.249 385.953 119.439 389.308C116.628 392.617 112.956 394.272 108.423 394.272C105.567 394.272 103.141 394.023 101.147 393.524C99.1521 392.98 97.2707 392.005 95.5027 390.6C91.8761 387.789 90.0627 382.123 90.0627 373.6V346.4H95.7067V373.532C95.7067 381.783 96.9534 387.291 99.4467 390.056C100.716 391.416 102.031 392.345 103.391 392.844C104.796 393.343 106.473 393.592 108.423 393.592C112.775 393.592 116.243 392.005 118.827 388.832C121.456 385.613 122.771 380.513 122.771 373.532V346.4ZM132.828 347.08V346.4H144.932V347.08H141.6V393.32H144.932V394H132.828V393.32H135.956V347.08H132.828ZM160.121 346.4V376.456L182.085 346.4L182.629 346.876L170.457 363.468L188.545 394H182.221L166.989 368.228L160.121 377.68V394H154.477V346.4H160.121ZM223.469 346.4C224.33 347.261 224.761 348.372 224.761 349.732C224.761 350.865 224.511 352.021 224.013 353.2L211.841 377.884V394H206.197V379.38L192.597 346.4H198.377L211.365 377.068L223.197 353.2C223.695 352.067 223.945 350.888 223.945 349.664C223.945 348.44 223.605 347.488 222.925 346.808L223.469 346.4ZM228.156 371.356C228.156 363.105 230.151 356.849 234.14 352.588C238.175 348.281 243.343 346.128 249.644 346.128C255.945 346.128 260.955 347.987 264.672 351.704C268.435 355.421 270.316 361.36 270.316 369.52C270.316 377.68 268.321 383.845 264.332 388.016C260.343 392.187 255.016 394.272 248.352 394.272C242.595 394.272 237.88 392.617 234.208 389.308C232.304 387.585 230.808 385.205 229.72 382.168C228.677 379.085 228.156 375.481 228.156 371.356ZM249.44 346.808C244.861 346.808 241.099 348.848 238.152 352.928C235.251 357.008 233.8 362.992 233.8 370.88C233.8 378.768 235.183 384.525 237.948 388.152C240.713 391.779 244.385 393.592 248.964 393.592C253.588 393.592 257.351 391.552 260.252 387.472C263.199 383.347 264.672 377.385 264.672 369.588C264.672 361.745 263.267 355.988 260.456 352.316C257.691 348.644 254.019 346.808 249.44 346.808Z" fill="#DDC9D0"/>
</svg>
